<svg xmlns="http://www.w3.org/2000/svg">
  <symbol id="icon-x" viewBox="0 0 24 24">
    <path fill="currentColor" d="M14.2 10.4 22.7 1h-2.1l-7.4 8.2L7.4 1H1l9 12.7L1.2 23h2.1l7.7-8.5 6 8.5h6.4l-9.2-12.6Zm-2.7 3-.9-1.3L3.5 2.6h3l5.5 7.7.9 1.3 7.2 9.9h-3l-5.6-8.1Z"/>
  </symbol>
  <symbol id="icon-tiktok" viewBox="0 0 24 24">
    <path fill="currentColor" d="M16.1 2c.4 2.9 2.2 4.6 5 4.9v3.9c-1.8 0-3.5-.5-4.9-1.5v6.4c0 4-2.9 6.7-6.7 6.7A6.2 6.2 0 0 1 3.2 16c0-3.6 2.7-6.2 6.3-6.2.6 0 1.2.1 1.7.3v4a3.3 3.3 0 0 0-1.6-.4 2.3 2.3 0 0 0-2.4 2.3c0 1.4 1 2.4 2.4 2.4 1.5 0 2.5-1 2.5-2.7V2h4Z"/>
  </symbol>
  <symbol id="icon-instagram" viewBox="0 0 24 24">
    <rect x="3.2" y="3.2" width="17.6" height="17.6" rx="5" fill="none" stroke="currentColor" stroke-width="2"/>
    <circle cx="12" cy="12" r="4.1" fill="none" stroke="currentColor" stroke-width="2"/>
    <circle cx="17" cy="7" r="1.3" fill="currentColor"/>
  </symbol>
  <symbol id="icon-threads" viewBox="0 0 24 24">
    <path fill="none" stroke="currentColor" stroke-linecap="round" stroke-linejoin="round" stroke-width="2" d="M12.1 3.2c5.1 0 8.3 3.7 8.3 8.8 0 5.4-3.4 8.8-8.4 8.8-4.7 0-8.4-3.1-8.4-7.4 0-3.2 2.4-5.6 5.9-5.6 3.4 0 5.6 1.9 5.6 4.6 0 2.4-1.8 4.1-4.3 4.1-2 0-3.5-1-3.5-2.6 0-1.5 1.2-2.5 3.1-2.5 2.5 0 4.2 1.2 5.5 3.4"/>
  </symbol>
  <symbol id="icon-discord" viewBox="0 0 24 24">
    <path fill="currentColor" d="M19.7 5.4A15 15 0 0 0 16 4.3l-.5 1a13.7 13.7 0 0 0-7 0l-.5-1a15 15 0 0 0-3.7 1.1C2 8.8 1.4 12 1.7 15.1a15 15 0 0 0 4.6 2.3l1-1.6c-.6-.2-1.1-.5-1.6-.8l.4-.3a10.8 10.8 0 0 0 11.8 0l.4.3c-.5.3-1 .6-1.6.8l1 1.6a15 15 0 0 0 4.6-2.3c.4-3.6-.6-6.7-2.6-9.7ZM8.8 13.7c-.9 0-1.6-.8-1.6-1.8s.7-1.8 1.6-1.8 1.7.8 1.6 1.8c0 1-.7 1.8-1.6 1.8Zm6.4 0c-.9 0-1.6-.8-1.6-1.8s.7-1.8 1.6-1.8 1.7.8 1.6 1.8c0 1-.7 1.8-1.6 1.8Z"/>
  </symbol>
  <symbol id="icon-facebook" viewBox="0 0 24 24">
    <path fill="currentColor" d="M14.2 8.1H17V4.2c-.5-.1-2.1-.2-3.9-.2-3.8 0-6.4 2.4-6.4 6.7v3.1H2.5v4.4h4.2V24h5.1v-5.8h4l.7-4.4h-4.7v-2.7c0-1.3.4-3 2.4-3Z"/>
  </symbol>
  <symbol id="icon-linkedin" viewBox="0 0 24 24">
    <path fill="currentColor" d="M5 7.4A2.6 2.6 0 1 1 5 2a2.6 2.6 0 0 1 0 5.4ZM2.5 22V9.2h5V22h-5Zm7.3 0V9.2h4.8v1.8h.1c.7-1.3 2.3-2.1 4-2.1 4.3 0 5.1 2.8 5.1 6.4V22h-5v-6c0-1.4 0-3.2-2-3.2s-2.3 1.5-2.3 3.1V22h-4.7Z"/>
  </symbol>
  <symbol id="icon-snapchat" viewBox="0 0 24 24">
    <path fill="none" stroke="currentColor" stroke-linejoin="round" stroke-width="1.9" d="M12 3.2c2.5 0 4.4 1.8 4.4 4.2v3.1c.4-.2.9-.3 1.3 0 .5.3.4 1-.2 1.3-.4.2-.9.3-1.1.4.3 1.1 1.3 2.2 3.2 2.8-.2.7-.8 1.1-1.8 1.2-.3.8-1.1 1.2-2.2 1.1-.7.8-1.8 1.5-3.6 1.5s-2.9-.7-3.6-1.5c-1.1.1-1.9-.3-2.2-1.1-1-.1-1.6-.5-1.8-1.2 1.9-.6 2.9-1.7 3.2-2.8-.2-.1-.7-.2-1.1-.4-.6-.3-.7-1-.2-1.3.4-.3.9-.2 1.3 0V7.4C7.6 5 9.5 3.2 12 3.2Z"/>
  </symbol>
  <symbol id="icon-reddit" viewBox="0 0 24 24">
    <path fill="none" stroke="currentColor" stroke-linecap="round" stroke-linejoin="round" stroke-width="1.9" d="M8.1 14.2c.8.7 2 1 3.9 1s3.1-.3 3.9-1M9.2 11.8h.1m5.5 0h.1M12 18.9c-4 0-7.2-2.1-7.2-4.8 0-1.5 1-2.8 2.7-3.7a8.8 8.8 0 0 1 4.5-1.1c1.7 0 3.3.4 4.5 1.1 1.7.9 2.7 2.2 2.7 3.7 0 2.7-3.2 4.8-7.2 4.8ZM16.5 10.4l1.4-3.3 3 .7M6.6 10.5a2 2 0 1 0-2.9 2.7m13.7-2.7a2 2 0 1 1 2.9 2.7"/>
  </symbol>
  <symbol id="icon-substack" viewBox="0 0 24 24">
    <path fill="currentColor" d="M4 4h16v2.2H4V4Zm0 4.5h16v2.2H4V8.5Zm0 4.5h16v8l-8-4-8 4v-8Z"/>
  </symbol>
  <symbol id="icon-youtube" viewBox="0 0 24 24">
    <path fill="currentColor" d="M22 7.2a3 3 0 0 0-2.1-2.1C18 4.6 12 4.6 12 4.6s-6 0-7.9.5A3 3 0 0 0 2 7.2 31 31 0 0 0 1.5 12c0 1.7.2 3.4.5 4.8a3 3 0 0 0 2.1 2.1c1.9.5 7.9.5 7.9.5s6 0 7.9-.5a3 3 0 0 0 2.1-2.1c.3-1.4.5-3.1.5-4.8s-.2-3.4-.5-4.8ZM10 15.4V8.6l5.8 3.4-5.8 3.4Z"/>
  </symbol>
</svg>
